<?xml version="1.0" encoding="UTF-8"?>
<svg version="1.1" xmlns="http://www.w3.org/2000/svg" width="24" height="24">
<path d="M0 0 C0.29341888 5.67276511 0.00559652 8.99067246 -3 14 C-3.99 14 -4.98 14 -6 14 C-5.7834375 13.37351562 -5.566875 12.74703125 -5.34375 12.1015625 C-5.0653125 11.28429688 -4.786875 10.46703125 -4.5 9.625 C-4.2215625 8.81289062 -3.943125 8.00078125 -3.65625 7.1640625 C-2.90326695 5.05790758 -2.90326695 5.05790758 -3 3 C-8.51272919 1.28915301 -11.53190155 0.5393557 -17 3 C-15.97911021 8.25903661 -15.97911021 8.25903661 -13.6875 13 C-11.39169004 14.36047998 -9.61714385 14.21220085 -7 14 C-7 14.99 -7 15.98 -7 17 C-9.125 17.8125 -9.125 17.8125 -12 18 C-16.15145625 15.2323625 -18.83769686 12.9979035 -20 8 C-20.14059443 5.3086209 -20.0915082 2.6994918 -20 0 C-12.98050597 -2.53896592 -7.13829527 -1.8852834 0 0 Z " fill="#000000" transform="translate(22,3)"/>
<path d="M0 0 C0.99 0.33 1.98 0.66 3 1 C1.38405168 3.04119788 -0.2856382 5.04072937 -2 7 C-2.66 7 -3.32 7 -4 7 C-4.66 5.68 -5.32 4.36 -6 3 C-5.38125 2.87625 -4.7625 2.7525 -4.125 2.625 C-1.80879168 2.12802644 -1.80879168 2.12802644 0 0 Z " fill="#000000" transform="translate(14,7)"/>
</svg>
