<?xml version="1.0" encoding="UTF-8"?>
<svg version="1.1" xmlns="http://www.w3.org/2000/svg" width="24" height="24">
<path d="M0 0 C0.29341888 5.67276511 0.00559652 8.99067246 -3 14 C-3.99 14 -4.98 14 -6 14 C-5.7834375 13.37351562 -5.566875 12.74703125 -5.34375 12.1015625 C-5.0653125 11.28429688 -4.786875 10.46703125 -4.5 9.625 C-4.2215625 8.81289062 -3.943125 8.00078125 -3.65625 7.1640625 C-2.90326695 5.05790758 -2.90326695 5.05790758 -3 3 C-8.51272919 1.28915301 -11.53190155 0.5393557 -17 3 C-15.97911021 8.25903661 -15.97911021 8.25903661 -13.6875 13 C-11.39169004 14.36047998 -9.61714385 14.21220085 -7 14 C-7 14.99 -7 15.98 -7 17 C-9.125 17.8125 -9.125 17.8125 -12 18 C-16.15145625 15.2323625 -18.83769686 12.9979035 -20 8 C-20.14059443 5.3086209 -20.0915082 2.6994918 -20 0 C-12.98050597 -2.53896592 -7.13829527 -1.8852834 0 0 Z " fill="#000000" transform="translate(22,3)"/>
<path d="M0 0 C0.598125 0.165 1.19625 0.33 1.8125 0.5 C4.11344336 1.1114124 4.11344336 1.1114124 7 1 C6.835 1.598125 6.67 2.19625 6.5 2.8125 C5.8885876 5.11344336 5.8885876 5.11344336 6 8 C5.401875 7.835 4.80375 7.67 4.1875 7.5 C1.88655664 6.8885876 1.88655664 6.8885876 -1 7 C-0.7525 6.1028125 -0.7525 6.1028125 -0.5 5.1875 C0.1114124 2.88655664 0.1114124 2.88655664 0 0 Z " fill="#000000" transform="translate(9,6)"/>
</svg>
